<mxfile host="app.diagrams.net" modified="2022-04-14T12:11:38.339Z" agent="5.0 (Macintosh; Intel Mac OS X 10_15_7) AppleWebKit/537.36 (KHTML, like Gecko) Chrome/100.0.4896.88 Safari/537.36" etag="_vyn2SA22xXwqmvziWFr" version="17.4.4" type="github">
  <diagram id="HZ0G2eskOaiYg2bCNzLZ" name="Page-1">
    <mxGraphModel dx="946" dy="589" grid="1" gridSize="10" guides="1" tooltips="1" connect="1" arrows="1" fold="1" page="1" pageScale="1" pageWidth="850" pageHeight="1100" math="0" shadow="0">
      <root>
        <mxCell id="0" />
        <mxCell id="1" parent="0" />
        <mxCell id="prHA39KzzY9n3g6ulu4v-1" value="&lt;b&gt;OrgaAdmin&lt;br&gt;&lt;/b&gt;userAdmin&lt;br&gt;orgaAdmin&lt;br&gt;&lt;br&gt;Create&lt;br&gt;ClaimDomain" style="rounded=0;whiteSpace=wrap;html=1;" vertex="1" parent="1">
          <mxGeometry x="200" y="40" width="120" height="200" as="geometry" />
        </mxCell>
        <mxCell id="prHA39KzzY9n3g6ulu4v-3" value="&lt;b&gt;OrgaAdminRequest&lt;br&gt;&lt;/b&gt;userAdmin&lt;br&gt;orgaAdmin&lt;br&gt;reason&lt;br&gt;&lt;br&gt;Create&lt;br&gt;GrantOrgaAdminRights" style="rounded=0;whiteSpace=wrap;html=1;" vertex="1" parent="1">
          <mxGeometry x="40" y="40" width="120" height="200" as="geometry" />
        </mxCell>
        <mxCell id="prHA39KzzY9n3g6ulu4v-4" value="&lt;b&gt;Domain&lt;/b&gt;&lt;br&gt;orgaAdmin&lt;br&gt;&lt;br&gt;Create&lt;br&gt;Validate&lt;br&gt;Archive" style="rounded=0;whiteSpace=wrap;html=1;" vertex="1" parent="1">
          <mxGeometry x="360" y="40" width="120" height="200" as="geometry" />
        </mxCell>
      </root>
    </mxGraphModel>
  </diagram>
</mxfile>
